<svg width="519" height="172" viewBox="0 0 519 172" fill="none" xmlns="http://www.w3.org/2000/svg">
<path d="M136.724 171.207L176.05 147.131L177.421 8.24805L138.095 32.3234L136.724 171.207Z" fill="#8A8A8A"/>
<path d="M138.095 32.3232L177.421 8.24788L41.3655 0.793945L2.03955 24.955L138.095 32.3232Z" fill="#C4C4C4"/>
<path d="M2.03929 24.9561L0.668457 163.839L136.724 171.207L138.095 32.3243L2.03929 24.9561Z" fill="#9B9B9B"/>
<path d="M212.806 171.207L192.843 138.478L191.387 8.24805L211.435 32.3234L212.806 171.207Z" fill="#8A8A8A"/>
<path d="M211.435 32.3232L191.387 8.24788L308.165 0.793945L347.491 24.955L211.435 32.3232Z" fill="#C4C4C4"/>
<path d="M347.491 24.9561L348.862 163.839L212.806 171.207L211.435 32.3243L347.491 24.9561Z" fill="#9B9B9B"/>
<path d="M496.912 171.207L516.961 138.478L518.417 8.24805L498.283 32.3234L496.912 171.207Z" fill="#8A8A8A"/>
<path d="M498.283 32.3232L518.417 8.24788L401.553 0.793945L362.313 24.955L498.283 32.3232Z" fill="#C4C4C4"/>
<path d="M362.313 24.9561L360.857 163.839L496.912 171.207L498.283 32.3243L362.313 24.9561Z" fill="#9B9B9B"/>
<g filter="url(#filter0_d_1590_6671)">
<path d="M37.9382 138.136V61.0264H90.3728V75.5058H56.6159V93.8408H85.7463V108.492H56.6159V138.05H37.9382V138.136Z" fill="white"/>
</g>
<g filter="url(#filter1_d_1590_6671)">
<path d="M428.627 140.449C416.375 140.449 407.037 137.193 400.696 130.596C394.271 124.085 391.101 113.718 391.101 99.581C391.101 86.044 394.185 75.8484 400.354 68.9942C406.523 62.14 415.947 58.7129 428.713 58.7129C441.051 58.7129 450.389 61.9686 456.815 68.5658C463.241 75.163 466.411 85.4443 466.411 99.4954C466.411 113.118 463.327 123.399 457.072 130.168C450.732 137.022 441.308 140.449 428.627 140.449ZM428.627 127.683C432.568 127.598 435.91 126.741 438.652 125.027C441.393 123.314 443.449 120.486 444.906 116.459C446.363 112.433 447.048 106.778 447.048 99.6667C447.048 93.0695 446.363 87.8432 444.906 83.9877C443.449 80.1323 441.393 77.3906 438.652 75.7627C435.91 74.1348 432.568 73.3637 428.627 73.3637C424.686 73.3637 421.345 74.2205 418.603 75.8484C415.861 77.4763 413.805 80.3036 412.434 84.1591C411.063 88.0146 410.378 93.3266 410.378 99.9237C410.378 107.121 411.063 112.69 412.434 116.717C413.805 120.743 415.861 123.571 418.603 125.284C421.345 126.826 424.686 127.683 428.627 127.683ZM458.614 138.993C459.985 138.993 461.185 138.821 462.213 138.564C463.241 138.307 464.526 137.622 466.154 136.679V148.246C464.783 149.017 463.155 149.531 461.356 149.874C459.557 150.216 457.501 150.302 455.187 150.302C453.131 150.302 451.075 150.045 449.019 149.531C446.962 149.017 444.992 148.16 443.192 146.961C441.308 145.761 439.765 144.048 438.309 141.906C436.938 139.764 435.91 136.936 435.31 133.595C434.71 130.596 433.854 127.94 432.74 125.713C431.626 123.399 430.341 121.686 428.799 120.486C427.256 119.287 425.629 118.601 423.744 118.601C421.345 118.601 419.117 119.115 417.061 120.229C415.005 121.343 413.205 122.971 411.577 125.199V113.204C412.777 111.319 414.833 109.52 417.661 107.977C420.488 106.435 423.658 105.578 427.342 105.578C430.341 105.578 433.254 106.264 435.996 107.635C438.737 109.006 441.222 111.147 443.364 114.232C445.506 117.316 447.219 121.429 448.419 126.741C449.361 130.511 450.646 133.509 452.36 135.737C454.074 137.879 456.215 138.993 458.614 138.993Z" fill="white"/>
</g>
<g filter="url(#filter2_d_1590_6671)">
<path d="M245 138.11L265.734 61H286.211L321.938 138.11H302.747L270.189 65.3695L279.271 64.5985L262.821 138.11H245ZM259.565 121.488L261.879 107.694H297.006L300.091 121.488H259.565Z" fill="white"/>
</g>
<defs>
<filter id="filter0_d_1590_6671" x="33.9382" y="61.0264" width="60.4346" height="85.1099" filterUnits="userSpaceOnUse" color-interpolation-filters="sRGB">
<feFlood flood-opacity="0" result="BackgroundImageFix"/>
<feColorMatrix in="SourceAlpha" type="matrix" values="0 0 0 0 0 0 0 0 0 0 0 0 0 0 0 0 0 0 127 0" result="hardAlpha"/>
<feOffset dy="4"/>
<feGaussianBlur stdDeviation="2"/>
<feComposite in2="hardAlpha" operator="out"/>
<feColorMatrix type="matrix" values="0 0 0 0 0 0 0 0 0 0 0 0 0 0 0 0 0 0 0.25 0"/>
<feBlend mode="normal" in2="BackgroundImageFix" result="effect1_dropShadow_1590_6671"/>
<feBlend mode="normal" in="SourceGraphic" in2="effect1_dropShadow_1590_6671" result="shape"/>
</filter>
<filter id="filter1_d_1590_6671" x="387.101" y="58.7129" width="83.3104" height="99.5894" filterUnits="userSpaceOnUse" color-interpolation-filters="sRGB">
<feFlood flood-opacity="0" result="BackgroundImageFix"/>
<feColorMatrix in="SourceAlpha" type="matrix" values="0 0 0 0 0 0 0 0 0 0 0 0 0 0 0 0 0 0 127 0" result="hardAlpha"/>
<feOffset dy="4"/>
<feGaussianBlur stdDeviation="2"/>
<feComposite in2="hardAlpha" operator="out"/>
<feColorMatrix type="matrix" values="0 0 0 0 0 0 0 0 0 0 0 0 0 0 0 0 0 0 0.25 0"/>
<feBlend mode="normal" in2="BackgroundImageFix" result="effect1_dropShadow_1590_6671"/>
<feBlend mode="normal" in="SourceGraphic" in2="effect1_dropShadow_1590_6671" result="shape"/>
</filter>
<filter id="filter2_d_1590_6671" x="241" y="61" width="84.9384" height="85.1099" filterUnits="userSpaceOnUse" color-interpolation-filters="sRGB">
<feFlood flood-opacity="0" result="BackgroundImageFix"/>
<feColorMatrix in="SourceAlpha" type="matrix" values="0 0 0 0 0 0 0 0 0 0 0 0 0 0 0 0 0 0 127 0" result="hardAlpha"/>
<feOffset dy="4"/>
<feGaussianBlur stdDeviation="2"/>
<feComposite in2="hardAlpha" operator="out"/>
<feColorMatrix type="matrix" values="0 0 0 0 0 0 0 0 0 0 0 0 0 0 0 0 0 0 0.25 0"/>
<feBlend mode="normal" in2="BackgroundImageFix" result="effect1_dropShadow_1590_6671"/>
<feBlend mode="normal" in="SourceGraphic" in2="effect1_dropShadow_1590_6671" result="shape"/>
</filter>
</defs>
</svg>
