<svg width="52" height="47" viewBox="0 0 52 47" fill="none" xmlns="http://www.w3.org/2000/svg">
<path fill-rule="evenodd" clip-rule="evenodd" d="M34.6498 10.0974C34.6498 15.087 30.6049 19.1318 25.6153 19.1318C20.6257 19.1318 16.5809 15.087 16.5809 10.0974C16.5809 5.10775 20.6257 1.06288 25.6153 1.06288C30.6049 1.06288 34.6498 5.10775 34.6498 10.0974ZM31.3643 18.3994C29.7328 19.5314 27.7515 20.1947 25.6153 20.1947C23.4456 20.1947 21.4356 19.5103 19.7896 18.3457L14.8858 27.3527C18.0468 29.0586 20.1947 32.4008 20.1947 36.2447C20.1947 41.8213 15.674 46.3421 10.0974 46.3421C4.52074 46.3421 0 41.8213 0 36.2447C0 30.6681 4.52074 26.1473 10.0974 26.1473C11.4515 26.1473 12.7434 26.4139 13.9235 26.8975L18.9436 17.6768C16.8432 15.8264 15.518 13.1166 15.518 10.0974C15.518 4.52074 20.0387 0 25.6153 0C31.1919 0 35.7127 4.52074 35.7127 10.0974C35.7127 13.1509 34.3573 15.8879 32.2152 17.7394L37.182 26.8621C38.3383 26.4009 39.5999 26.1473 40.9207 26.1473C46.4973 26.1473 51.0181 30.6681 51.0181 36.2447C51.0181 41.8213 46.4973 46.3421 40.9207 46.3421C35.3441 46.3421 30.8234 41.8213 30.8234 36.2447C30.8234 32.3674 33.0087 29.0005 36.2149 27.3086L31.3643 18.3994ZM49.9552 36.2447C49.9552 41.2343 45.9103 45.2792 40.9207 45.2792C35.9311 45.2792 31.8862 41.2343 31.8862 36.2447C31.8862 31.2551 35.9311 27.2102 40.9207 27.2102C45.9103 27.2102 49.9552 31.2551 49.9552 36.2447ZM10.0974 45.2792C15.087 45.2792 19.1318 41.2343 19.1318 36.2447C19.1318 31.2551 15.087 27.2102 10.0974 27.2102C5.10775 27.2102 1.06288 31.2551 1.06288 36.2447C1.06288 41.2343 5.10775 45.2792 10.0974 45.2792ZM24.3046 8.20159C24.3046 7.50578 24.939 6.94172 25.7217 6.94172C26.5044 6.94172 27.1389 7.50578 27.1389 8.20159C27.1389 8.8974 26.5044 9.46146 25.7217 9.46146C24.939 9.46146 24.3046 8.8974 24.3046 8.20159ZM25.7217 6.10181C24.4173 6.10181 23.3598 7.04191 23.3598 8.20159C23.3598 9.36127 24.4173 10.3014 25.7217 10.3014C27.0262 10.3014 28.0837 9.36127 28.0837 8.20159C28.0837 7.04191 27.0262 6.10181 25.7217 6.10181ZM23.8322 11.1413C23.2057 11.1413 22.605 11.3625 22.162 11.7563C21.7191 12.1501 21.4702 12.6842 21.4702 13.2411V14.081C21.4702 14.3129 21.6817 14.5009 21.9426 14.5009C22.2035 14.5009 22.415 14.3129 22.415 14.081V13.2411C22.415 12.9069 22.5643 12.5865 22.8301 12.3502C23.0958 12.1139 23.4563 11.9812 23.8322 11.9812H27.6113C27.9872 11.9812 28.3476 12.1139 28.6134 12.3502C28.8792 12.5865 29.0285 12.9069 29.0285 13.2411V14.081C29.0285 14.3129 29.24 14.5009 29.5009 14.5009C29.7618 14.5009 29.9732 14.3129 29.9732 14.081V13.2411C29.9732 12.6842 29.7244 12.1501 29.2814 11.7563C28.8385 11.3625 28.2377 11.1413 27.6113 11.1413H23.8322ZM8.78649 31.8718C8.78649 31.1759 9.42098 30.6119 10.2037 30.6119C10.9863 30.6119 11.6208 31.1759 11.6208 31.8718C11.6208 32.5676 10.9863 33.1316 10.2037 33.1316C9.42098 33.1316 8.78649 32.5676 8.78649 31.8718ZM10.2037 29.772C8.89919 29.772 7.84171 30.7121 7.84171 31.8718C7.84171 33.0314 8.89919 33.9715 10.2037 33.9715C11.5081 33.9715 12.5656 33.0314 12.5656 31.8718C12.5656 30.7121 11.5081 29.772 10.2037 29.772ZM8.3141 34.8115C7.68767 34.8115 7.0869 35.0327 6.64395 35.4265C6.201 35.8203 5.95215 36.3543 5.95215 36.9112V37.7512C5.95215 37.9831 6.16364 38.1711 6.42454 38.1711C6.68543 38.1711 6.89693 37.9831 6.89693 37.7512V36.9112C6.89693 36.5771 7.04624 36.2566 7.31201 36.0204C7.57778 35.7841 7.93825 35.6514 8.3141 35.6514H12.0932C12.4691 35.6514 12.8295 35.7841 13.0953 36.0204C13.3611 36.2566 13.5104 36.5771 13.5104 36.9112V37.7512C13.5104 37.9831 13.7219 38.1711 13.9828 38.1711C14.2437 38.1711 14.4552 37.9831 14.4552 37.7512V36.9112C14.4552 36.3543 14.2063 35.8203 13.7634 35.4265C13.3204 35.0327 12.7197 34.8115 12.0932 34.8115H8.3141ZM41.0269 30.6119C40.2442 30.6119 39.6097 31.1759 39.6097 31.8718C39.6097 32.5676 40.2442 33.1316 41.0269 33.1316C41.8096 33.1316 42.4441 32.5676 42.4441 31.8718C42.4441 31.1759 41.8096 30.6119 41.0269 30.6119ZM38.665 31.8718C38.665 30.7121 39.7224 29.772 41.0269 29.772C42.3314 29.772 43.3889 30.7121 43.3889 31.8718C43.3889 33.0314 42.3314 33.9715 41.0269 33.9715C39.7224 33.9715 38.665 33.0314 38.665 31.8718ZM37.4672 35.4265C37.9101 35.0327 38.5109 34.8115 39.1373 34.8115H42.9165C43.5429 34.8115 44.1437 35.0327 44.5866 35.4265C45.0296 35.8203 45.2784 36.3543 45.2784 36.9112V37.7512C45.2784 37.9831 45.0669 38.1711 44.806 38.1711C44.5451 38.1711 44.3336 37.9831 44.3336 37.7512V36.9112C44.3336 36.5771 44.1843 36.2566 43.9186 36.0204C43.6528 35.7841 43.2923 35.6514 42.9165 35.6514H39.1373C38.7615 35.6514 38.401 35.7841 38.1353 36.0204C37.8695 36.2566 37.7202 36.5771 37.7202 36.9112V37.7512C37.7202 37.9831 37.5087 38.1711 37.2478 38.1711C36.9869 38.1711 36.7754 37.9831 36.7754 37.7512V36.9112C36.7754 36.3543 37.0242 35.8203 37.4672 35.4265Z" fill="#281F48"/>
</svg>
