<svg width="22" height="22" viewBox="0 0 22 22" fill="none" xmlns="http://www.w3.org/2000/svg">
<path d="M6.88811 -0.00573139C6.94354 -0.00609821 6.94354 -0.00609821 7.00008 -0.00647243C7.04048 -0.00652313 7.08087 -0.00657383 7.12249 -0.00662606C7.16556 -0.00684468 7.20862 -0.0070633 7.253 -0.00728854C7.39774 -0.00796457 7.54248 -0.00833061 7.68722 -0.00869333C7.79083 -0.00910315 7.89444 -0.00952816 7.99804 -0.00996726C8.30922 -0.0111996 8.6204 -0.0120497 8.93159 -0.0127771C9.0195 -0.0129832 9.10741 -0.0131973 9.19532 -0.0134133C9.74146 -0.0147439 10.2876 -0.0158903 10.8337 -0.0166109C10.9602 -0.0167806 11.0866 -0.0169526 11.213 -0.0171276C11.2445 -0.017171 11.2759 -0.0172143 11.3083 -0.0172589C11.8174 -0.0179897 12.3264 -0.0197563 12.8355 -0.0219411C13.3583 -0.0241666 13.8812 -0.0254171 14.404 -0.0257288C14.6975 -0.025929 14.991 -0.0265616 15.2845 -0.0282959C15.5606 -0.0299254 15.8366 -0.0302419 16.1127 -0.0296706C16.214 -0.029673 16.3153 -0.0301165 16.4166 -0.031035C16.555 -0.0322227 16.6933 -0.0318165 16.8317 -0.0310163C16.8717 -0.0317379 16.9117 -0.0324596 16.9529 -0.0332031C17.2463 -0.0289686 17.4037 0.0606955 17.6169 0.258088C17.6702 0.306048 17.6702 0.306048 17.7246 0.354975C17.7552 0.385512 17.7857 0.416048 17.8172 0.447509C17.853 0.482985 17.8887 0.51846 17.9255 0.555011C17.9824 0.612177 17.9824 0.612177 18.0404 0.670498C18.0817 0.711692 18.1231 0.752867 18.1644 0.794026C18.2758 0.904973 18.3868 1.01619 18.4978 1.12746C18.6144 1.24425 18.7312 1.36083 18.8479 1.47744C19.0437 1.67308 19.2393 1.86891 19.4349 2.06484C19.6607 2.29112 19.8868 2.51709 20.1131 2.7429C20.3078 2.93724 20.5024 3.13176 20.6968 3.32642C20.8127 3.44248 20.9287 3.55849 21.0449 3.67434C21.1539 3.78317 21.2628 3.8922 21.3715 4.00139C21.4303 4.06038 21.4894 4.11916 21.5484 4.17793C21.5835 4.21328 21.6186 4.24864 21.6548 4.28506C21.7005 4.33084 21.7005 4.33084 21.7472 4.37755C21.9136 4.56623 21.9729 4.70287 21.9732 4.9557C21.9738 5.03844 21.9738 5.03844 21.9744 5.12286C21.9742 5.18399 21.9739 5.24512 21.9737 5.30625C21.9739 5.37126 21.9742 5.43627 21.9745 5.50128C21.9752 5.68001 21.9751 5.85873 21.9749 6.03745C21.9747 6.23019 21.9754 6.42293 21.9759 6.61567C21.9768 6.99337 21.977 7.37107 21.9769 7.74878C21.9769 8.0559 21.977 8.36301 21.9773 8.67013C21.9774 8.75857 21.9775 8.84701 21.9776 8.93545C21.9777 9.00148 21.9777 9.00148 21.9778 9.06884C21.9786 9.9018 21.9785 10.7348 21.9782 11.5677C21.978 12.3292 21.9789 13.0907 21.9803 13.8522C21.9818 14.6343 21.9824 15.4164 21.9822 16.1985C21.9821 16.6375 21.9823 17.0765 21.9834 17.5155C21.9843 17.8894 21.9845 18.2633 21.9836 18.6372C21.9833 18.8279 21.9832 19.0185 21.9841 19.2092C21.9849 19.384 21.9847 19.5588 21.9837 19.7337C21.9835 19.7966 21.9837 19.8596 21.9843 19.9225C21.9899 20.5664 21.815 21.0466 21.3731 21.5135C21.0524 21.8163 20.6341 22.0054 20.1948 22.0059C20.1417 22.0061 20.0885 22.0063 20.0337 22.0064C19.9746 22.0064 19.9155 22.0064 19.8564 22.0063C19.7936 22.0064 19.7309 22.0066 19.6682 22.0067C19.4956 22.007 19.323 22.0071 19.1504 22.0072C18.9643 22.0072 18.7782 22.0076 18.5921 22.0078C18.1849 22.0084 17.7777 22.0087 17.3706 22.0089C17.1162 22.009 16.8618 22.0092 16.6074 22.0094C15.9026 22.0099 15.1979 22.0103 14.4932 22.0105C14.4481 22.0105 14.4029 22.0105 14.3565 22.0105C14.3112 22.0105 14.266 22.0105 14.2194 22.0105C14.1278 22.0106 14.0361 22.0106 13.9445 22.0106C13.899 22.0106 13.8536 22.0106 13.8067 22.0106C13.0712 22.0108 12.3356 22.0115 11.6001 22.0125C10.8444 22.0136 10.0887 22.0141 9.33307 22.0142C8.909 22.0142 8.48493 22.0144 8.06086 22.0152C7.6995 22.0159 7.33813 22.0161 6.97677 22.0157C6.79262 22.0156 6.60848 22.0156 6.42433 22.0162C6.25523 22.0168 6.08614 22.0167 5.91704 22.0162C5.85637 22.0161 5.79569 22.0162 5.73502 22.0166C5.13593 22.0201 4.54756 21.9353 3.9797 21.7398C3.94234 21.7271 3.90498 21.7143 3.86649 21.7012C3.05451 21.4127 2.38558 20.9565 1.76144 20.3675C1.72975 20.3385 1.69807 20.3096 1.66543 20.2798C0.907704 19.5624 0.446568 18.6116 0.171591 17.6175C0.163338 17.5884 0.155085 17.5594 0.146582 17.5295C-0.238012 16.1034 0.0934126 14.492 0.802359 13.2293C1.04235 12.819 1.35017 12.4622 1.6755 12.1175C1.70441 12.0858 1.73332 12.0541 1.76311 12.0215C2.36708 11.3836 3.15375 10.9411 3.9797 10.6592C4.03031 10.6418 4.03031 10.6418 4.08194 10.624C4.32009 10.5479 4.55979 10.5013 4.80573 10.4592C4.83949 10.4533 4.87325 10.4475 4.90803 10.4414C4.99066 10.4271 5.07331 10.4129 5.15597 10.3987C5.15599 10.3534 5.15601 10.3081 5.15604 10.2614C5.15666 9.15709 5.15851 8.05282 5.16164 6.94855C5.16313 6.41452 5.16422 5.8805 5.16437 5.34648C5.1645 4.88087 5.16538 4.41527 5.16716 3.94966C5.16808 3.70326 5.16862 3.45687 5.16826 3.21047C5.16794 2.97822 5.16862 2.746 5.17006 2.51375C5.17041 2.42883 5.17041 2.34391 5.17 2.25899C5.16691 1.54347 5.27399 1.02446 5.78254 0.487031C6.0728 0.213015 6.48417 -0.00416631 6.88811 -0.00573139ZM6.6169 1.59012C6.47122 1.80865 6.48178 2.02472 6.48254 2.28077C6.48247 2.31549 6.48241 2.35021 6.48234 2.38599C6.48217 2.5022 6.4823 2.61841 6.48244 2.73462C6.48238 2.81798 6.4823 2.90134 6.48221 2.9847C6.48201 3.21098 6.48209 3.43726 6.48223 3.66354C6.48233 3.90007 6.48223 4.13661 6.48217 4.37315C6.48209 4.77019 6.48219 5.16724 6.4824 5.56429C6.48263 6.02397 6.48255 6.48364 6.48232 6.94332C6.48212 7.33757 6.48209 7.73183 6.48221 8.12609C6.48227 8.36175 6.48228 8.59742 6.48214 8.83308C6.48202 9.05443 6.4821 9.27577 6.48235 9.49711C6.48241 9.57858 6.48239 9.66005 6.4823 9.74151C6.48218 9.85222 6.48233 9.96293 6.48254 10.0736C6.48245 10.1063 6.48235 10.139 6.48225 10.1726C6.46963 10.3195 6.46963 10.3195 6.53097 10.4417C6.60341 10.4536 6.6759 10.4653 6.74856 10.4759C7.39839 10.5734 8.01307 10.7783 8.59615 11.0808C8.64284 11.1049 8.64284 11.1049 8.69046 11.1295C8.83455 11.2079 8.96077 11.2828 9.08104 11.3959C9.48111 11.7588 9.86293 11.7413 10.3832 11.7336C10.4723 11.7337 10.5613 11.734 10.6504 11.7344C10.8909 11.7351 11.1313 11.7335 11.3718 11.7314C11.6238 11.7297 11.8759 11.7303 12.1279 11.7307C12.6049 11.7311 13.0819 11.7297 13.5588 11.7275C14.4138 11.7236 15.2688 11.7228 16.1238 11.7228C16.4238 11.7227 16.7238 11.7218 17.0238 11.7202C17.2101 11.7193 17.3964 11.7189 17.5827 11.7187C17.6691 11.7184 17.7556 11.718 17.842 11.7173C17.9599 11.7163 18.0778 11.7162 18.1957 11.7162C18.2471 11.7155 18.2471 11.7155 18.2996 11.7148C18.4955 11.7158 18.6214 11.7381 18.7771 11.8597C18.8989 12.0171 18.9236 12.1351 18.9221 12.3323C18.9224 12.3757 18.9227 12.4192 18.9231 12.4639C18.9031 12.6109 18.8677 12.6878 18.7771 12.805C18.6019 12.9375 18.4508 12.9525 18.2379 12.951C18.2056 12.9513 18.1733 12.9516 18.14 12.9519C18.032 12.9527 17.924 12.9526 17.816 12.9524C17.7385 12.9528 17.661 12.9533 17.5835 12.9538C17.3732 12.955 17.1629 12.9554 16.9526 12.9556C16.7328 12.956 16.513 12.9571 16.2932 12.9582C15.877 12.9601 15.4608 12.9613 15.0446 12.9623C14.5707 12.9635 14.0969 12.9653 13.623 12.9673C12.6483 12.9713 11.6736 12.9744 10.6989 12.9768C10.7221 13.0198 10.7453 13.0628 10.7692 13.1071C10.8002 13.1647 10.8311 13.2223 10.8621 13.28C10.8773 13.3081 10.8925 13.3363 10.9082 13.3654C11.2337 13.9725 11.4524 14.5967 11.5604 15.2769C11.5729 15.4288 11.5729 15.4288 11.6442 15.555C11.7329 15.5594 11.8218 15.5607 11.9106 15.5609C11.9387 15.561 11.9669 15.5611 11.9959 15.5613C12.0908 15.5616 12.1858 15.5617 12.2808 15.5617C12.3486 15.5619 12.4164 15.5622 12.4842 15.5624C12.6306 15.5629 12.777 15.5633 12.9234 15.5635C13.1549 15.564 13.3863 15.5649 13.6178 15.5658C14.2761 15.5685 14.9344 15.5708 15.5927 15.5722C15.956 15.573 16.3193 15.5742 16.6826 15.576C16.8749 15.5769 17.0673 15.5776 17.2596 15.5777C17.4406 15.5778 17.6216 15.5784 17.8026 15.5796C17.869 15.5799 17.9355 15.58 18.0019 15.5798C18.0926 15.5797 18.1833 15.5803 18.274 15.5811C18.3502 15.5813 18.3502 15.5813 18.4279 15.5815C18.577 15.5997 18.657 15.6381 18.7771 15.7268C18.8989 15.8843 18.9236 16.0023 18.9221 16.1995C18.9224 16.2429 18.9227 16.2863 18.9231 16.3311C18.9031 16.4781 18.8677 16.555 18.7771 16.6722C18.6067 16.798 18.4836 16.8174 18.2737 16.8182C18.2311 16.8186 18.2311 16.8186 18.1876 16.8191C18.0926 16.8199 17.9977 16.8197 17.9028 16.8196C17.8346 16.82 17.7664 16.8205 17.6982 16.821C17.5133 16.8221 17.3284 16.8225 17.1435 16.8228C16.9502 16.8232 16.7569 16.8243 16.5635 16.8254C16.1976 16.8273 15.8316 16.8285 15.4656 16.8295C15.0489 16.8306 14.6322 16.8325 14.2155 16.8345C13.3584 16.8385 12.5013 16.8415 11.6442 16.844C11.6308 16.8973 11.6174 16.9505 11.6036 17.0053C11.5923 17.0502 11.5923 17.0502 11.5807 17.0961C11.5595 17.1828 11.54 17.2697 11.5214 17.357C11.2354 18.6772 10.5869 19.6839 9.62472 20.6253C9.59636 20.6536 9.568 20.682 9.53878 20.7112C10.8693 20.7132 12.1998 20.7147 13.5304 20.7156C13.6875 20.7157 13.8446 20.7158 14.0017 20.7159C14.0486 20.716 14.0486 20.716 14.0964 20.716C14.6028 20.7164 15.1091 20.7171 15.6154 20.7178C16.135 20.7186 16.6546 20.7191 17.1742 20.7193C17.4948 20.7194 17.8154 20.7198 18.136 20.7205C18.3818 20.721 18.6277 20.721 18.8736 20.7209C18.9744 20.721 19.0752 20.7211 19.1761 20.7215C19.3137 20.7219 19.4513 20.7218 19.589 20.7215C19.6289 20.7218 19.6688 20.722 19.7099 20.7223C19.9899 20.721 20.225 20.711 20.4448 20.5205C20.6435 20.2877 20.6731 20.1135 20.673 19.8141C20.6731 19.7378 20.6731 19.7378 20.6732 19.66C20.673 19.5764 20.673 19.5764 20.6729 19.4911C20.6729 19.4312 20.6729 19.3713 20.673 19.3114C20.6731 19.1468 20.6729 18.9821 20.6727 18.8175C20.6725 18.64 20.6725 18.4625 20.6726 18.2849C20.6726 17.9774 20.6725 17.6698 20.6722 17.3622C20.6719 16.9176 20.6718 16.4729 20.6717 16.0282C20.6716 15.3067 20.6713 14.5852 20.6709 13.8638C20.6705 13.1629 20.6702 12.462 20.67 11.7611C20.67 11.7179 20.67 11.6747 20.67 11.6302C20.67 11.4135 20.6699 11.1968 20.6698 10.9801C20.6694 9.18216 20.6686 7.38418 20.6677 5.58621C20.6192 5.58596 20.5707 5.58571 20.5207 5.58545C20.0636 5.58299 19.6065 5.57987 19.1494 5.57609C18.9143 5.57416 18.6793 5.57248 18.4443 5.57133C18.2175 5.57021 17.9908 5.56847 17.764 5.56631C17.6775 5.56559 17.5909 5.5651 17.5044 5.56483C17.3832 5.56442 17.262 5.56321 17.1409 5.56182C17.1051 5.56188 17.0693 5.56195 17.0324 5.56201C16.8351 5.55881 16.6999 5.54613 16.5427 5.41434C16.3868 5.22836 16.3948 5.04758 16.3952 4.81616C16.3945 4.75891 16.3945 4.75891 16.3939 4.7005C16.3926 4.57472 16.3922 4.44895 16.3918 4.32317C16.3911 4.23581 16.3903 4.14845 16.3895 4.06109C16.3874 3.83144 16.3861 3.6018 16.385 3.37214C16.3837 3.13769 16.3817 2.90324 16.3798 2.66879C16.3761 2.20897 16.3732 1.74916 16.3708 1.28934C15.1715 1.28733 13.9722 1.28582 12.7728 1.28489C12.216 1.28444 11.6591 1.28384 11.1022 1.28286C10.6169 1.282 10.1316 1.28144 9.64623 1.28125C9.38923 1.28114 9.13223 1.28088 8.87522 1.28025C8.63332 1.27967 8.39142 1.27949 8.14952 1.27962C8.06074 1.27959 7.97197 1.27942 7.8832 1.27909C7.76194 1.27867 7.64068 1.27877 7.51942 1.279C7.48435 1.27875 7.44928 1.2785 7.41315 1.27825C7.08036 1.27998 6.84156 1.32695 6.6169 1.59012ZM17.6599 2.27762C17.6599 2.94407 17.6599 3.61051 17.6599 4.29715C18.3263 4.29715 18.9928 4.29715 19.6794 4.29715C19.4629 4.04416 19.4629 4.04416 19.2352 3.80445C19.201 3.77006 19.1667 3.73567 19.1314 3.70024C19.0953 3.6642 19.0592 3.62816 19.0219 3.59102C18.9843 3.5533 18.9466 3.51557 18.9078 3.47671C18.8286 3.39753 18.7494 3.31842 18.6702 3.23935C18.5888 3.15812 18.5075 3.07683 18.4263 2.99543C18.3089 2.87784 18.1915 2.76041 18.074 2.64302C18.0374 2.60637 18.0008 2.56972 17.9631 2.53196C17.9296 2.49852 17.896 2.46508 17.8614 2.43062C17.8317 2.401 17.8021 2.37137 17.7715 2.34085C17.7131 2.27277 17.7131 2.27277 17.6599 2.27762ZM2.53487 13.1487C1.65794 14.0893 1.32636 15.2505 1.35844 16.5117C1.3867 17.1458 1.56236 17.6983 1.84737 18.262C1.87036 18.3075 1.89335 18.3529 1.91703 18.3998C2.48859 19.4456 3.50998 20.2159 4.64571 20.5528C5.8719 20.8484 7.06415 20.684 8.16378 20.0667C8.34776 19.9527 8.51471 19.8202 8.6794 19.68C8.71624 19.6496 8.75307 19.6191 8.79102 19.5878C9.60562 18.8891 10.1892 17.8749 10.3122 16.8011C10.4087 15.5335 10.1618 14.3477 9.32394 13.3636C9.29353 13.3267 9.26312 13.2899 9.23179 13.2519C8.4391 12.3278 7.3302 11.8061 6.12545 11.6931C4.73572 11.6322 3.50426 12.1664 2.53487 13.1487Z" fill="#8F95B2"/>
</svg>
