<svg width="26" height="22" viewBox="0 0 26 22" fill="none" xmlns="http://www.w3.org/2000/svg">
<path fill-rule="evenodd" clip-rule="evenodd" d="M9.20833 2.2C7.41341 2.2 5.95833 3.67746 5.95833 5.5C5.95833 7.32254 7.41341 8.8 9.20833 8.8C11.0033 8.8 12.4583 7.32254 12.4583 5.5C12.4583 3.67746 11.0033 2.2 9.20833 2.2ZM3.79167 5.5C3.79167 2.46243 6.21679 0 9.20833 0C12.1999 0 14.625 2.46243 14.625 5.5C14.625 8.53757 12.1999 11 9.20833 11C6.21679 11 3.79167 8.53757 3.79167 5.5ZM21.6667 5.5C22.265 5.5 22.75 5.99249 22.75 6.6V8.8H24.9167C25.515 8.8 26 9.29249 26 9.9C26 10.5075 25.515 11 24.9167 11H22.75V13.2C22.75 13.8075 22.265 14.3 21.6667 14.3C21.0684 14.3 20.5833 13.8075 20.5833 13.2V11H18.4167C17.8184 11 17.3333 10.5075 17.3333 9.9C17.3333 9.29249 17.8184 8.8 18.4167 8.8H20.5833V6.6C20.5833 5.99249 21.0684 5.5 21.6667 5.5ZM1.5865 14.8109C2.60233 13.7795 3.98008 13.2 5.41667 13.2H13C14.4366 13.2 15.8143 13.7795 16.8302 14.8109C17.846 15.8424 18.4167 17.2413 18.4167 18.7V20.9C18.4167 21.5075 17.9316 22 17.3333 22C16.735 22 16.25 21.5075 16.25 20.9V18.7C16.25 17.8248 15.9076 16.9854 15.2981 16.3665C14.6886 15.7477 13.862 15.4 13 15.4H5.41667C4.55471 15.4 3.72806 15.7477 3.11857 16.3665C2.50908 16.9854 2.16667 17.8248 2.16667 18.7V20.9C2.16667 21.5075 1.68164 22 1.08333 22C0.485025 22 0 21.5075 0 20.9V18.7C0 17.2413 0.570683 15.8424 1.5865 14.8109Z" fill="#FD5631"/>
</svg>
