<svg width="24" height="26" viewBox="0 0 24 26" fill="none" xmlns="http://www.w3.org/2000/svg">
<path fill-rule="evenodd" clip-rule="evenodd" d="M12 2.36364C10.727 2.36364 9.50606 2.86169 8.60589 3.74822C7.70571 4.63476 7.2 5.83716 7.2 7.09091V10.6364H16.8V7.09091C16.8 5.83716 16.2943 4.63476 15.3941 3.74822C14.4939 2.86169 13.273 2.36364 12 2.36364ZM19.2 10.6364V7.09091C19.2 5.21028 18.4414 3.40668 17.0912 2.07688C15.7409 0.747076 13.9096 0 12 0C10.0904 0 8.25909 0.747076 6.90883 2.07688C5.55857 3.40668 4.8 5.21028 4.8 7.09091V10.6364H3.6C1.61177 10.6364 0 12.2237 0 14.1818V22.4545C0 24.4126 1.61177 26 3.6 26H20.4C22.3882 26 24 24.4126 24 22.4545V14.1818C24 12.2237 22.3882 10.6364 20.4 10.6364H19.2ZM3.6 13C2.93726 13 2.4 13.5291 2.4 14.1818V22.4545C2.4 23.1072 2.93726 23.6364 3.6 23.6364H20.4C21.0627 23.6364 21.6 23.1072 21.6 22.4545V14.1818C21.6 13.5291 21.0627 13 20.4 13H3.6Z" fill="#FD5631"/>
</svg>
