<svg width="30" height="26" viewBox="0 0 30 26" fill="none" xmlns="http://www.w3.org/2000/svg">
<path fill-rule="evenodd" clip-rule="evenodd" d="M11.4545 3.25C9.57338 3.25 7.97727 4.83924 7.97727 6.88889C7.97727 8.93853 9.57338 10.5278 11.4545 10.5278C13.3357 10.5278 14.9318 8.93853 14.9318 6.88889C14.9318 4.83924 13.3357 3.25 11.4545 3.25ZM5.47727 6.88889C5.47727 3.53841 8.11411 0.75 11.4545 0.75C14.795 0.75 17.4318 3.53841 17.4318 6.88889C17.4318 10.2394 14.795 13.0278 11.4545 13.0278C8.11411 13.0278 5.47727 10.2394 5.47727 6.88889ZM18.5189 1.83892C18.6956 1.17157 19.3799 0.773822 20.0472 0.950534C21.3413 1.29321 22.48 2.06936 23.2888 3.14691C24.097 4.22376 24.532 5.54248 24.532 6.895C24.532 8.24752 24.097 9.56624 23.2888 10.6431C22.48 11.7206 21.3413 12.4968 20.0472 12.8395C19.3799 13.0162 18.6956 12.6184 18.5189 11.9511C18.3422 11.2837 18.74 10.5995 19.4073 10.4228C20.1469 10.2269 20.8108 9.77987 21.2893 9.14237C21.7683 8.50418 22.032 7.71356 22.032 6.895C22.032 6.07644 21.7683 5.28582 21.2893 4.64762C20.8108 4.01013 20.1469 3.56309 19.4073 3.36724C18.74 3.19053 18.3422 2.50628 18.5189 1.83892ZM2.48597 17.2297C3.60344 16.074 5.12818 15.4167 6.72727 15.4167H16.1818C17.7809 15.4167 19.3056 16.074 20.4231 17.2297C21.5392 18.3839 22.1591 19.9407 22.1591 21.5556V24C22.1591 24.6904 21.5994 25.25 20.9091 25.25C20.2187 25.25 19.6591 24.6904 19.6591 24V21.5556C19.6591 20.5772 19.2829 19.6469 18.6259 18.9675C17.9703 18.2895 17.0902 17.9167 16.1818 17.9167H6.72727C5.81886 17.9167 4.9388 18.2895 4.2832 18.9675C3.62621 19.6469 3.25 20.5772 3.25 21.5556V24C3.25 24.6904 2.69036 25.25 2 25.25C1.30964 25.25 0.75 24.6904 0.75 24V21.5556C0.75 19.9407 1.36989 18.3839 2.48597 17.2297ZM23.2469 16.5031C23.425 15.8361 24.11 15.4398 24.777 15.6179C26.0677 15.9625 27.2027 16.7385 28.0091 17.8142C28.8149 18.8893 29.249 20.205 29.25 21.5547L29.25 21.5556L29.25 24C29.25 24.6904 28.6904 25.25 28 25.25C27.3096 25.25 26.75 24.6904 26.75 24L26.75 21.5565L26.75 21.5556C26.75 21.5559 26.75 21.5562 26.75 21.5565M26.75 21.5556C26.7492 20.7391 26.4861 19.9506 26.0087 19.3137C25.5316 18.6772 24.8697 18.2302 24.1321 18.0332C23.4651 17.8551 23.0688 17.1701 23.2469 16.5031" fill="#FD5631"/>
</svg>
