<svg width="24" height="26" viewBox="0 0 24 26" fill="none" xmlns="http://www.w3.org/2000/svg">
<path fill-rule="evenodd" clip-rule="evenodd" d="M12 2.6C9.79086 2.6 8 4.34609 8 6.5C8 8.65391 9.79086 10.4 12 10.4C14.2091 10.4 16 8.65391 16 6.5C16 4.34609 14.2091 2.6 12 2.6ZM5.33333 6.5C5.33333 2.91015 8.3181 0 12 0C15.6819 0 18.6667 2.91015 18.6667 6.5C18.6667 10.0899 15.6819 13 12 13C8.3181 13 5.33333 10.0899 5.33333 6.5ZM1.95262 17.5038C3.20286 16.2848 4.89856 15.6 6.66667 15.6H17.3333C19.1014 15.6 20.7971 16.2848 22.0474 17.5038C23.2976 18.7228 24 20.3761 24 22.1V24.7C24 25.418 23.403 26 22.6667 26C21.9303 26 21.3333 25.418 21.3333 24.7V22.1C21.3333 21.0657 20.9119 20.0737 20.1618 19.3423C19.4116 18.6109 18.3942 18.2 17.3333 18.2H6.66667C5.6058 18.2 4.58839 18.6109 3.83824 19.3423C3.08809 20.0737 2.66667 21.0657 2.66667 22.1V24.7C2.66667 25.418 2.06971 26 1.33333 26C0.596954 26 0 25.418 0 24.7V22.1C0 20.3761 0.702379 18.7228 1.95262 17.5038Z" fill="#FD5631"/>
</svg>
