<svg width="30" height="30" viewBox="0 0 30 30" fill="none" xmlns="http://www.w3.org/2000/svg">
<path d="M5.61497 14.0689C5.40686 14.0689 5.19875 14.0689 4.99065 14.0689C4.16863 14.0585 3.61715 13.4446 3.69519 12.6225C3.78884 11.5924 4.65248 10.7704 5.6826 10.7392C6.22888 10.7236 6.77516 10.7132 7.32143 10.7444C7.54515 10.7548 7.80528 10.8224 7.96656 10.9629C8.47122 11.4051 9.07473 11.53 9.70425 11.5508C10.4898 11.582 11.2806 11.5664 12.0714 11.556C12.1547 11.556 12.2691 11.4936 12.3212 11.4207C13.1224 10.401 14.1733 9.89636 15.474 9.90156C16.1867 9.90677 16.8943 9.88596 17.6071 9.90677C17.9921 9.91717 18.3719 9.99521 18.7621 10.042C18.7621 10.0472 18.7569 9.99001 18.736 9.94318C18.5644 9.55299 18.3927 9.16799 18.221 8.77779C18.0597 8.41361 17.7788 8.23672 17.3834 8.23672C16.8735 8.23672 16.3584 8.23672 15.8486 8.23672C15.5364 8.23672 15.3543 8.08584 15.3439 7.83091C15.3387 7.57078 15.526 7.40429 15.8486 7.40429C16.3584 7.39909 16.8735 7.39909 17.3834 7.40429C18.1377 7.4095 18.6736 7.75807 18.9806 8.43962C19.2459 9.02232 19.4956 9.61021 19.7714 10.2241C20.0679 9.84954 20.4113 9.56859 20.8691 9.52177C21.2905 9.48015 21.7172 9.46974 22.1386 9.50096C22.5184 9.52697 22.8201 9.88075 22.8305 10.2657C22.8461 10.8536 22.8461 11.4467 22.8305 12.0346C22.8149 12.4717 22.4559 12.7994 22.0085 12.8098C21.6547 12.8202 21.3009 12.8098 20.9159 12.8098C21.1293 13.2989 21.3374 13.7619 21.5507 14.251C22.9294 13.8556 24.2144 14.0429 25.3642 14.9117C26.1758 15.5256 26.6909 16.3424 26.9042 17.3361C27.3412 19.3496 26.2487 21.3578 24.3289 22.1018C22.4247 22.8353 20.2708 22.0654 19.2407 20.3017C18.169 18.4599 18.6424 15.8534 20.7807 14.5839C20.4841 13.9076 20.1876 13.2313 19.865 12.4977C19.6881 13.0232 19.4384 13.455 18.9962 13.6943C18.6684 13.866 18.5644 14.1105 18.4863 14.4383C18.2522 15.4424 17.9973 16.4413 17.7423 17.4402C17.4874 18.4443 16.6966 19.0582 15.6613 19.0634C14.7352 19.0686 13.8091 19.0634 12.8831 19.0634C12.675 19.7398 12.4669 19.8958 11.7593 19.8958C11.2546 19.8958 10.7552 19.9063 10.2505 19.8906C10.058 19.8854 9.96438 19.9531 9.88114 20.1196C8.55446 22.7157 4.99585 23.1891 3.08648 21.0092C2.01994 19.7918 1.72339 18.3715 2.26446 16.8419C2.81594 15.2759 3.98654 14.3967 5.61497 14.0689ZM21.1189 15.406C19.6777 16.1499 19.0898 18.1634 19.8546 19.6981C20.6662 21.337 22.638 22.0185 24.2821 21.2277C25.9053 20.4421 26.618 18.4807 25.8689 16.8575C25.0052 14.9845 22.9814 14.6256 21.9097 15.0626C21.9461 15.1562 21.9825 15.2499 22.0241 15.3435C22.2062 15.7649 22.2114 15.7597 22.6588 15.7337C23.8711 15.6505 24.9584 16.4413 25.2602 17.6171C25.5567 18.7617 24.9844 19.9739 23.9075 20.4837C22.8201 20.9988 21.5247 20.671 20.8171 19.7033C20.1095 18.7357 20.1928 17.4038 21.02 16.5245C21.1553 16.3789 21.3894 16.2436 21.405 16.0823C21.4258 15.895 21.2541 15.6869 21.1709 15.4892C21.1605 15.4632 21.1449 15.4424 21.1189 15.406ZM12.4669 13.2104C12.5189 13.2209 12.5553 13.2313 12.5865 13.2313C14.3554 13.2313 16.1243 13.2417 17.888 13.2261C18.5644 13.2209 19.0898 12.6434 19.0846 11.9722C19.0794 11.3011 18.5435 10.7496 17.862 10.7392C16.9932 10.7288 16.1295 10.7288 15.2607 10.7392C14.6832 10.7444 14.1525 10.9213 13.6791 11.2595C13.0079 11.7381 12.6073 12.3884 12.4669 13.2104ZM6.91563 14.995C5.20916 14.5735 3.42985 15.6505 2.97202 17.3518C2.49858 19.0946 3.50269 20.8948 5.22997 21.4202C7.0561 21.9717 8.6377 20.8115 9.01229 19.9011C8.75736 19.9011 8.50243 19.8854 8.25791 19.9063C8.13305 19.9167 7.98737 19.9687 7.89893 20.0519C6.89482 20.9884 5.32882 20.9572 4.38714 19.9635C3.42465 18.949 3.46627 17.3622 4.48599 16.4153C5.0895 15.8534 5.81267 15.6609 6.63989 15.7701C6.72833 15.51 6.81678 15.2655 6.91563 14.995ZM13.6531 18.2206C13.0027 16.9668 13.2368 15.8378 14.241 15.2083C15.0214 14.7192 16.3948 14.6932 17.2221 16.0563C17.3938 15.38 17.5498 14.7348 17.7163 14.0793C16.3168 14.0793 14.9589 14.0793 13.5854 14.0793C13.4606 14.5683 13.3409 15.0522 13.216 15.536C13.0391 16.2228 12.5969 16.561 11.8842 16.5662C11.7645 16.5662 11.65 16.5662 11.5044 16.5662C11.5772 16.8627 11.6448 17.128 11.6969 17.3257C11.9934 17.409 12.2796 17.4246 12.4721 17.5651C12.6698 17.7055 12.779 17.9709 12.9507 18.2206C13.1328 18.2206 13.3825 18.2206 13.6531 18.2206ZM15.3387 18.2258C16.0151 18.231 16.5821 17.6691 16.5873 16.998C16.5925 16.306 16.0359 15.7389 15.3439 15.7337C14.6624 15.7337 14.1005 16.2852 14.0953 16.9616C14.0901 17.6535 14.6468 18.2258 15.3387 18.2258ZM12.009 18.2466C10.058 18.2466 8.13305 18.2466 6.20807 18.2466C6.20807 18.5223 6.20807 18.7877 6.20807 19.0426C8.15386 19.0426 10.0788 19.0426 12.009 19.0426C12.009 18.7721 12.009 18.5223 12.009 18.2466ZM8.01859 14.4851C9.2152 15.099 9.95917 16.0771 10.2661 17.383C10.469 17.383 10.6511 17.383 10.8488 17.383C10.5679 16.2696 10.2973 15.1718 10.0216 14.0689C9.50654 14.0689 9.01229 14.0897 8.51804 14.0585C8.20588 14.0429 8.0394 14.1313 8.01859 14.4851ZM21.9825 11.9826C21.9825 11.4103 21.9825 10.8693 21.9825 10.323C21.6859 10.323 21.4102 10.3126 21.1345 10.323C20.6974 10.3438 20.3541 10.7028 20.3437 11.1294C20.3333 11.556 20.6662 11.941 21.098 11.9722C21.3894 11.9982 21.6807 11.9826 21.9825 11.9826ZM10.8852 14.0741C10.9893 14.5007 11.0881 14.9013 11.187 15.3019C11.2911 15.7129 11.931 15.9054 12.2535 15.6245C12.3004 15.5881 12.3472 15.536 12.3628 15.484C12.4877 15.021 12.6021 14.5579 12.727 14.0741C12.1027 14.0741 11.5148 14.0741 10.8852 14.0741ZM7.70643 15.2707C7.62319 15.5048 7.53474 15.7181 7.46711 15.9366C7.4515 15.9939 7.49832 16.0979 7.54515 16.1343C7.96136 16.4257 8.27352 16.7951 8.47642 17.2581C8.50243 17.3153 8.57527 17.3882 8.6325 17.3882C8.87702 17.4038 9.12675 17.3934 9.40249 17.3934C9.13195 16.4309 8.57527 15.7441 7.70643 15.2707Z" fill="#281F48"/>
</svg>
